<svg width="23" height="27" viewBox="0 0 23 27" fill="none" xmlns="http://www.w3.org/2000/svg">
<path fill-rule="evenodd" clip-rule="evenodd" d="M11.4401 8.13655e-08C14.0131 1.7268 20.3063 6.98081 22.7248 13.8208C23.5436 16.7634 22.5129 20.1715 19.9308 21.3572C16.3846 22.9856 13.2369 20.8457 13.0308 20.6799C12.6668 21.9585 13.0307 22.8777 13.5608 23.9384C14.0872 24.9917 14.7617 25.9722 15.3805 27C12.8118 27 10.2102 27 7.51654 27C8.9937 25.1021 10.2902 23.1702 9.69489 20.6782C8.80919 21.0632 8.00424 21.5545 7.13035 21.7675C-0.669853 22.9857 -0.360826 15.9123 0.320122 13.8078C1.92934 8.83447 9.40782 1.64585 11.4401 8.13655e-08Z" fill="#555555"/>
</svg>
