<svg width="25" height="25" viewBox="0 0 25 25" fill="none" xmlns="http://www.w3.org/2000/svg">
<path fill-rule="evenodd" clip-rule="evenodd" d="M24.6718 16.6476C23.7673 19.7769 20.96 20.9002 17.7881 20.4997C16.5681 20.3457 15.559 19.7972 14.6818 18.9824C14.5673 18.8759 14.4419 18.7806 14.3075 18.6684C13.7842 20.2638 14.2774 21.6183 16.599 25C13.9954 25 11.429 25 8.79614 25C10.2228 23.1658 11.5108 21.3071 10.9016 18.812C10.1827 19.2437 9.56383 19.684 8.88702 20.0096C6.27774 21.2652 2.14771 20.6157 0.592564 17.2562C-0.679058 14.5094 0.15996 11.1119 2.49653 9.602C3.99363 8.63447 5.58474 8.4196 7.3506 9.13551C7.09363 8.77185 6.86666 8.48021 6.67132 8.16973C4.55554 4.80503 6.32356 0.921461 10.29 0.175277C12.1142 -0.167945 13.8674 -0.0160886 15.5736 0.710376C18.9132 2.13231 19.3325 6.19618 17.6439 8.40003C17.4709 8.62588 17.2974 8.85152 17.0397 9.18696C18.2724 8.64786 19.447 8.6157 20.6198 8.88754C22.6166 9.35038 23.8862 10.5294 24.6572 12.4343C25.4068 14.2858 24.6972 16.5599 24.6718 16.6476Z" fill="#555555"/>
</svg>
