<svg width="25" height="24" viewBox="0 0 25 24" fill="none" xmlns="http://www.w3.org/2000/svg">
<path fill-rule="evenodd" clip-rule="evenodd" d="M24.8911 8.81146C24.1446 11.5342 22.5439 13.7413 20.6296 15.7418C17.9851 18.5051 15.304 21.2336 12.637 23.9756C12.6099 24.0035 12.5624 24.0119 12.6383 23.977C9.68111 20.9813 6.71795 18.0511 3.84003 15.0399C1.78841 12.8932 0.207061 10.4015 0.0163574 7.37567C-0.140986 4.87932 0.836973 2.68677 2.94216 1.1983C4.8555 -0.154481 6.98851 -0.202497 9.08648 0.722508C11.0394 1.58357 11.923 3.32055 12.4345 5.28236C12.4792 5.45382 12.5253 5.6249 12.6004 5.90817C12.8364 5.12591 12.9818 4.45997 13.2351 3.83769C14.1933 1.48409 16.0268 0.172207 18.5074 0.0111603C20.6606 -0.128751 22.8438 1.04889 24.2072 3.42983C25.3638 5.44969 24.9235 8.69352 24.8911 8.81146Z" fill="#EB5757"/>
</svg>
